:SAMPLES-PER-SECOND 30
:FULLY-SPECIFIED
:DEGREES
37
root  -0.276799 39.7584 -6.44551 -178.981 -72.9228 174.02
RightUpLeg  -17.0776 -13.0986 -7.94775
RightLeg  6.24404 -7.0694 2.84828
RightFoot  -1.12823 -0.665651 7.35648
RightToes  0.00048216 0.542163 -0.142577
Spine  11.5432 -1.85515 -6.19112
Spine1  7.99812 -3.86535 4.4449
HEad  14.1729 8.19925 -7.18997
LeftShoulder1  8.95097 -12.8328 -47.824
LeftArm  -0.565873 -1.91599 -34.3382
LeftForeArm  31.4566 -10.5737 -7.75128
LeftHand  -0.25398 0.0180481 5.50724
RightShoulder  5.48519 9.61495 35.8344
RightArm  0.907997 -26.6037 45.617
RightForeArm  34.469 11.895 7.19066
RightHand  0.128763 -3.44108 9.43797
LeftUpLeg  12.4983 7.45443 1.39289
LeftLeg  8.96608 23.4424 -2.54412
LeftFoot  -16.5291 -0.185339 -6.27922
LeftToes  1.06244e-005 4.65856e-005 -8.18505e-006
38
root  -1.00649 39.6171 -6.7815 -178.848 -71.9978 174.069
RightUpLeg  -17.4051 -10.845 -8.80742
RightLeg  2.46407 -10.4687 4.2227
RightFoot  -0.772256 -0.61152 6.54408
RightToes  0.00048216 0.542163 -0.142577
Spine  12.109 -2.32918 -6.48749
Spine1  7.93912 -4.67645 5.4739
HEad  13.22 9.64107 -8.02842
LeftShoulder1  8.95188 -12.9344 -47.529
LeftArm  8.47984 -3.39238 -35.6929
LeftForeArm  31.4106 -16.3102 -6.2699
LeftHand  -0.25398 0.0180481 5.50724
RightShoulder  5.47534 9.66675 35.6003
RightArm  1.27853 -27.5509 44.8696
RightForeArm  34.0212 11.7943 7.28307
RightHand  0.027151 -4.59393 9.53857
LeftUpLeg  13.7957 7.47783 1.47676
LeftLeg  8.79005 24.1693 -2.46562
LeftFoot  -17.2526 -0.249495 -6.83502
LeftToes  1.06244e-005 4.65856e-005 -8.18505e-006
39
root  -1.82011 39.4152 -7.19765 -178.547 -71.2165 173.851
RightUpLeg  -18.0049 -10.3175 -8.97913
RightLeg  0.988757 -10.8712 4.49344
RightFoot  -0.799056 -0.590705 6.33524
RightToes  0.00048216 0.542163 -0.142577
Spine  12.8183 -2.75509 -6.75939
Spine1  7.67069 -5.38346 6.24075
HEad  12.4008 10.9009 -8.5136
LeftShoulder1  8.88131 -12.8861 -47.2889
LeftArm  12.6342 -4.23803 -36.5344
LeftForeArm  28.8291 -21.0691 -4.09098
LeftHand  -0.25398 0.0180481 5.50724
RightShoulder  5.42852 9.59263 35.4807
RightArm  -0.504785 -27.994 43.4192
RightForeArm  32.8253 11.0666 7.21462
RightHand  -0.0279499 -5.08161 6.99961
LeftUpLeg  15.1982 7.66075 1.72321
LeftLeg  9.05023 24.5556 -2.32839
LeftFoot  -18.1436 -0.343349 -7.57986
LeftToes  1.06244e-005 4.65856e-005 -8.18505e-006
40
root  -2.70505 39.1724 -7.70536 -178.433 -70.601 173.702
RightUpLeg  -18.9301 -10.7009 -8.67598
RightLeg  2.64819 -10.029 3.93562
RightFoot  -0.737407 -0.591382 6.30664
RightToes  0.00048216 0.542163 -0.142577
Spine  13.7369 -3.06923 -7.0558
Spine1  7.25086 -6.02858 7.1601
HEad  11.7343 11.8554 -8.81586
LeftShoulder1  8.80506 -12.762 -47.2394
LeftArm  10.3864 -4.66235 -36.6786
LeftForeArm  27.1179 -24.3664 -3.68658
LeftHand  -0.25398 0.0180481 5.50724
RightShoulder  5.34187 9.45009 35.2717
RightArm  -2.85394 -27.7933 41.579
RightForeArm  31.9811 10.1768 6.95356
RightHand  0.0157745 -4.01671 4.16173
LeftUpLeg  16.8596 7.88082 2.27062
LeftLeg  9.4859 24.044 -2.23297
LeftFoot  -19.059 -0.528103 -9.49701
LeftToes  1.06244e-005 4.65856e-005 -8.18505e-006
41
root  -3.64438 38.9439 -8.30169 -178.839 -70.3573 174.28
RightUpLeg  -20.364 -12.793 -7.32798
RightLeg  6.68209 -8.55927 2.77826
RightFoot  0.516978 -0.544879 5.30456
RightToes  0.00048216 0.542163 -0.142577
Spine  14.4306 -3.37093 -7.02098
Spine1  7.04605 -6.68873 8.32352
HEad  11.2071 12.4793 -9.06114
LeftShoulder1  8.74954 -12.6679 -47.2136
LeftArm  6.34448 -4.83662 -36.4771
LeftForeArm  25.5342 -26.6277 -4.35172
LeftHand  -0.25398 0.0180481 5.50724
RightShoulder  5.22287 9.25672 34.9695
RightArm  -5.23743 -26.9368 39.6782
RightForeArm  30.5144 9.29016 6.55671
RightHand  0.0138905 -2.79091 1.56686
LeftUpLeg  18.486 8.13138 3.27747
LeftLeg  9.82983 22.9481 -2.05335
LeftFoot  -19.5898 -0.711961 -11.4769
LeftToes  1.06244e-005 4.65856e-005 -8.18505e-006
42
root  -4.64846 38.7613 -8.98558 179.66 -70.341 176.313
RightUpLeg  -22.325 -16.8166 -4.39534
RightLeg  11.5099 -5.7095 1.10308
RightFoot  2.93208 -0.422138 3.53649
RightToes  0.00048216 0.542163 -0.142577
Spine  14.6742 -3.72121 -6.03948
Spine1  7.17046 -7.19824 9.12981
HEad  10.6684 12.7867 -9.23734
LeftShoulder1  8.68793 -12.636 -46.9686
LeftArm  3.30987 -4.82989 -36.2774
LeftForeArm  24.0136 -28.1896 -4.78218
LeftHand  -0.25398 0.0180481 5.50724
RightShoulder  5.1229 9.07833 34.7591
RightArm  -7.68295 -25.6408 37.881
RightForeArm  27.5625 8.67915 6.03191
RightHand  -0.045932 -2.48264 -1.16728
LeftUpLeg  19.7537 8.96566 5.13382
LeftLeg  10.5437 21.5211 -1.44086
LeftFoot  -19.5336 -0.78684 -12.5629
LeftToes  1.06244e-005 4.65856e-005 -8.18505e-006
